<?xml version="1.0" standalone="no"?>
<!DOCTYPE svg PUBLIC "-//W3C//DTD SVG 20010904//EN"
 "http://www.w3.org/TR/2001/REC-SVG-20010904/DTD/svg10.dtd">
<svg version="1.0" xmlns="http://www.w3.org/2000/svg"
 width="900.000000pt" height="900.000000pt" viewBox="0 0 900.000000 900.000000"
 preserveAspectRatio="xMidYMid meet">
<metadata>
Created by potrace 1.10, written by Peter Selinger 2001-2011
</metadata>
<g transform="translate(0.000000,900.000000) scale(0.100000,-0.100000)"
fill="#00416A" stroke="none">
<path d="M2700 7856 c-86 -19 -105 -35 -139 -119 -18 -47 -14 -199 8 -249 43
-100 75 -108 459 -108 190 0 311 -4 323 -10 19 -11 19 -40 19 -1665 0 -1625 0
-1654 -19 -1665 -12 -6 -135 -10 -329 -10 -383 0 -404 -5 -451 -106 -16 -34
-21 -63 -21 -131 0 -144 34 -206 129 -237 45 -14 154 -16 1096 -16 1137 0
1117 -1 1177 55 39 36 53 88 52 200 0 112 -15 157 -63 192 -53 40 -90 43 -553
43 -245 0 -453 3 -462 6 -14 6 -16 63 -16 544 l0 538 508 5 c592 5 684 13 940
82 87 23 259 98 339 146 312 191 487 441 574 819 29 129 32 490 5 615 -72 332
-209 565 -441 754 -240 195 -527 292 -943 321 -224 15 -2120 12 -2192 -4z
m2310 -505 c160 -35 235 -63 348 -131 134 -80 261 -228 310 -360 51 -138 56
-169 56 -370 1 -223 -10 -276 -85 -427 -83 -167 -283 -332 -464 -383 -153 -42
-199 -51 -322 -60 -76 -5 -316 -10 -534 -10 -353 0 -398 2 -403 16 -3 9 -6
404 -6 879 0 681 3 865 13 869 6 3 233 4 502 2 450 -4 498 -6 585 -25z"/>
<path d="M4575 7064 c-166 -42 -298 -153 -373 -314 -53 -114 -67 -189 -67
-350 0 -145 5 -178 46 -303 23 -70 32 -85 88 -160 133 -178 324 -238 601 -188
36 7 69 16 74 22 6 5 17 9 24 9 27 0 159 69 191 100 28 26 32 34 26 62 -9 41
-42 78 -70 78 -12 0 -40 -12 -61 -27 -44 -32 -86 -52 -159 -79 -40 -15 -78
-19 -185 -19 -158 0 -187 11 -275 99 -79 78 -120 176 -134 319 -24 240 46 441
187 539 198 137 491 52 517 -151 10 -73 14 -89 31 -105 20 -20 83 -21 112 0
22 15 22 19 22 228 0 245 0 246 -83 246 -41 0 -48 -3 -62 -30 -8 -16 -15 -38
-15 -49 0 -32 -18 -34 -50 -8 -16 14 -56 38 -87 53 -51 24 -72 28 -168 30 -60
2 -119 1 -130 -2z"/>
<path d="M7186 3185 c-3 -9 -6 -182 -6 -385 0 -326 2 -369 16 -374 23 -9 167
-7 182 2 9 7 12 91 10 388 l-3 379 -96 3 c-81 2 -98 0 -103 -13z"/>
<path d="M1607 3153 c-4 -3 -7 -167 -7 -364 0 -316 2 -358 16 -363 20 -8 178
-8 198 0 13 5 16 25 16 115 0 93 2 110 18 117 9 5 61 10 115 11 132 1 168 13
222 74 47 52 59 88 59 172 0 80 -12 119 -51 164 -63 75 -91 81 -352 81 -125 0
-231 -3 -234 -7z m386 -181 c11 -10 17 -30 17 -58 0 -56 -33 -84 -97 -84 -73
0 -83 10 -83 86 0 55 3 66 19 72 32 11 124 1 144 -16z"/>
<path d="M2763 2993 c-12 -2 -37 -18 -54 -34 -36 -33 -56 -32 -61 3 -3 22 -7
23 -83 23 l-80 0 0 -280 0 -280 100 0 100 0 5 168 c5 169 5 169 32 192 17 14
47 26 75 30 27 3 55 7 63 8 19 3 27 141 9 163 -11 13 -57 16 -106 7z"/>
<path d="M3265 2991 c-90 -18 -151 -64 -194 -146 -17 -32 -21 -57 -21 -138 0
-83 3 -105 24 -145 30 -59 67 -94 131 -122 72 -33 238 -33 310 -1 106 47 155
121 162 249 12 191 -86 297 -284 306 -48 3 -106 1 -128 -3z m139 -135 c55 -23
66 -48 66 -152 0 -82 -2 -94 -24 -117 -44 -47 -123 -48 -166 -2 -28 29 -39
136 -21 203 10 37 19 46 54 63 51 23 49 22 91 5z"/>
<path d="M4207 2990 c-16 -5 -43 -20 -62 -34 -43 -33 -51 -33 -70 4 -15 29
-18 30 -83 30 -37 0 -73 -4 -80 -8 -9 -7 -12 -91 -10 -388 l3 -379 100 0 100
0 3 118 c2 109 4 117 23 117 11 0 31 -7 44 -16 17 -11 48 -16 104 -16 65 0 86
4 116 22 78 48 115 133 115 265 0 131 -37 217 -114 264 -39 24 -144 36 -189
21z m41 -146 c59 -16 84 -168 39 -235 -64 -96 -177 -38 -177 92 0 116 49 166
138 143z"/>
<path d="M4923 2990 c-136 -29 -213 -133 -213 -289 0 -120 60 -216 164 -262
67 -29 242 -31 302 -3 99 45 142 101 165 212 11 53 11 71 -5 136 -33 139 -120
204 -285 211 -47 2 -105 0 -128 -5z m173 -147 c48 -31 59 -195 17 -251 -27
-36 -72 -48 -124 -33 -33 10 -44 20 -60 54 -39 88 -12 214 53 242 36 16 79 11
114 -12z"/>
<path d="M5729 2991 c-53 -10 -117 -41 -141 -67 -25 -29 -42 -97 -33 -140 9
-53 69 -108 132 -124 26 -6 77 -17 113 -25 82 -16 120 -33 120 -55 0 -31 -30
-45 -92 -44 -55 1 -62 4 -85 32 -24 31 -26 32 -109 32 -98 0 -109 -10 -78 -67
43 -81 128 -115 280 -115 128 0 193 21 243 77 56 64 50 182 -12 229 -35 26
-115 56 -150 56 -12 0 -52 7 -89 16 -50 12 -69 22 -74 36 -9 30 12 43 70 43
43 0 58 -5 86 -28 31 -26 38 -28 109 -25 73 3 76 4 79 28 4 42 -33 89 -92 116
-59 27 -196 39 -277 25z"/>
<path d="M6510 2991 c-49 -9 -116 -36 -134 -54 -28 -29 -46 -64 -46 -89 l0
-28 96 0 c91 0 97 1 116 25 16 21 28 25 68 25 41 0 54 -5 75 -27 14 -15 25
-36 25 -45 0 -21 -10 -23 -150 -39 -58 -6 -123 -19 -145 -29 -110 -47 -141
-196 -56 -273 31 -28 48 -35 98 -40 76 -8 160 5 204 32 44 27 62 26 95 -4 28
-26 60 -31 159 -26 57 3 76 19 73 65 -2 44 -14 63 -41 70 -31 8 -37 36 -37
188 0 160 -15 190 -111 228 -58 23 -212 34 -289 21z m194 -337 c11 -28 6 -43
-25 -79 -27 -30 -37 -35 -77 -35 -76 0 -108 53 -59 97 26 25 45 30 108 32 34
1 49 -3 53 -15z"/>
<path d="M5360 2057 c-52 -25 -90 -88 -90 -147 0 -43 -15 -60 -52 -60 l-29 0
3 -62 c3 -59 5 -63 28 -66 49 -7 50 -11 50 -229 l0 -204 103 3 102 3 5 210 5
210 40 3 c53 5 65 17 65 66 0 56 -8 64 -60 68 -41 3 -45 6 -48 31 -4 36 13 57
49 57 41 0 61 25 57 73 -4 53 -29 67 -118 66 -46 0 -78 -6 -110 -22z"/>
<path d="M3113 2030 c-169 -31 -263 -163 -263 -371 0 -177 57 -284 185 -345
57 -28 67 -29 195 -29 130 0 137 1 194 30 77 39 122 93 147 177 11 37 18 72
14 78 -4 6 -48 10 -106 10 l-100 0 -18 -42 c-30 -69 -52 -83 -131 -83 -79 0
-101 14 -131 83 -25 57 -25 179 -1 242 48 124 230 120 258 -5 3 -16 12 -33 18
-37 6 -4 54 -8 107 -8 107 0 113 4 100 61 -24 102 -72 166 -157 209 -53 27
-75 31 -160 35 -55 2 -122 0 -151 -5z"/>
<path d="M5869 2003 c-6 -15 -16 -49 -23 -76 -14 -56 -24 -67 -68 -76 -33 -7
-33 -7 -33 -66 0 -56 2 -60 25 -63 48 -7 50 -15 50 -179 0 -183 8 -211 74
-243 30 -14 62 -20 113 -20 111 0 131 7 139 46 9 48 -7 88 -37 92 -79 9 -89
28 -89 173 0 112 9 129 69 129 47 0 61 14 61 65 0 54 -7 61 -63 67 -26 3 -51
9 -55 12 -3 4 -9 41 -12 84 l-5 77 -68 3 c-65 3 -67 2 -78 -25z"/>
<path d="M4090 1853 c-19 -8 -40 -23 -48 -34 -18 -26 -41 -24 -52 6 -10 25
-12 26 -87 23 l-78 -3 -3 -277 -2 -278 100 0 c115 0 103 -13 100 120 0 41 3
107 9 145 8 59 15 74 41 98 25 22 40 27 84 27 40 0 55 4 60 16 11 28 6 150 -6
162 -16 16 -75 14 -118 -5z"/>
<path d="M4563 1854 c-90 -19 -147 -59 -162 -111 -15 -52 0 -63 89 -63 69 0
82 3 108 25 58 48 146 40 166 -17 15 -43 -5 -58 -78 -58 -202 0 -307 -65 -309
-189 0 -73 22 -112 81 -141 38 -19 55 -22 130 -18 70 4 97 10 139 33 l52 27
37 -28 c31 -24 49 -29 108 -32 39 -2 84 1 99 7 26 10 28 14 25 63 -3 47 -6 54
-31 66 -40 19 -47 47 -47 195 0 119 -2 134 -22 163 -53 77 -228 113 -385 78z
m202 -334 c13 -41 -5 -79 -45 -100 -22 -11 -50 -20 -63 -20 -30 0 -77 36 -77
59 0 39 72 78 147 80 23 1 33 -4 38 -19z"/>
</g>
</svg>
